<svg width="163" height="101" viewBox="0 0 163 101" fill="none" xmlns="http://www.w3.org/2000/svg">
<path d="M22.6582 21.0293C22.6582 23.5371 22.2363 25.7285 21.3926 27.6035C20.5488 29.4668 19.3535 30.8906 17.8066 31.875C16.2598 32.8594 14.4551 33.3516 12.3926 33.3516C10.377 33.3516 8.58984 32.8594 7.03125 31.875C5.47266 30.8789 4.25977 29.4668 3.39258 27.6387C2.53711 25.7988 2.09766 23.6719 2.07422 21.2578V19.4121C2.07422 16.9512 2.50195 14.7773 3.35742 12.8906C4.21289 11.0039 5.41992 9.5625 6.97852 8.56641C8.54883 7.55859 10.3418 7.05469 12.3574 7.05469C14.4082 7.05469 16.2129 7.55273 17.7715 8.54883C19.3418 9.5332 20.5488 10.9688 21.3926 12.8555C22.2363 14.7305 22.6582 16.916 22.6582 19.4121V21.0293ZM19.3008 19.377C19.3008 16.3418 18.6914 14.0156 17.4727 12.3984C16.2539 10.7695 14.5488 9.95508 12.3574 9.95508C10.2246 9.95508 8.54297 10.7695 7.3125 12.3984C6.09375 14.0156 5.4668 16.2656 5.43164 19.1484V21.0293C5.43164 23.9707 6.04688 26.2852 7.27734 27.9727C8.51953 29.6484 10.2246 30.4863 12.3926 30.4863C14.5723 30.4863 16.2598 29.6953 17.4551 28.1133C18.6504 26.5195 19.2656 24.2402 19.3008 21.2754V19.377ZM36.4043 16.8984C35.9121 16.8164 35.3789 16.7754 34.8047 16.7754C32.6719 16.7754 31.2246 17.6836 30.4629 19.5V33H27.2109V13.9805H30.375L30.4277 16.1777C31.4941 14.4785 33.0059 13.6289 34.9629 13.6289C35.5957 13.6289 36.0762 13.7109 36.4043 13.875V16.8984ZM50.4492 33C50.2617 32.625 50.1094 31.957 49.9922 30.9961C48.4805 32.5664 46.6758 33.3516 44.5781 33.3516C42.7031 33.3516 41.1621 32.8242 39.9551 31.7695C38.7598 30.7031 38.1621 29.3555 38.1621 27.7266C38.1621 25.7461 38.9121 24.2109 40.4121 23.1211C41.9238 22.0195 44.0449 21.4688 46.7754 21.4688H49.9395V19.9746C49.9395 18.8379 49.5996 17.9355 48.9199 17.2676C48.2402 16.5879 47.2383 16.248 45.9141 16.248C44.7539 16.248 43.7812 16.541 42.9961 17.127C42.2109 17.7129 41.8184 18.4219 41.8184 19.2539H38.5488C38.5488 18.3047 38.8828 17.3906 39.5508 16.5117C40.2305 15.6211 41.1445 14.918 42.293 14.4023C43.4531 13.8867 44.7246 13.6289 46.1074 13.6289C48.2988 13.6289 50.0156 14.1797 51.2578 15.2812C52.5 16.3711 53.1445 17.877 53.1914 19.7988V28.5527C53.1914 30.2988 53.4141 31.6875 53.8594 32.7188V33H50.4492ZM45.0527 30.5215C46.0723 30.5215 47.0391 30.2578 47.9531 29.7305C48.8672 29.2031 49.5293 28.5176 49.9395 27.6738V23.7715H47.3906C43.4062 23.7715 41.4141 24.9375 41.4141 27.2695C41.4141 28.2891 41.7539 29.0859 42.4336 29.6602C43.1133 30.2344 43.9863 30.5215 45.0527 30.5215ZM61.3652 13.9805L61.4707 16.3711C62.9238 14.543 64.8223 13.6289 67.166 13.6289C71.1855 13.6289 73.2129 15.8965 73.248 20.4316V33H69.9961V20.4141C69.9844 19.043 69.668 18.0293 69.0469 17.373C68.4375 16.7168 67.4824 16.3887 66.1816 16.3887C65.127 16.3887 64.2012 16.6699 63.4043 17.2324C62.6074 17.7949 61.9863 18.5332 61.541 19.4473V33H58.2891V13.9805H61.3652ZM77.3789 23.332C77.3789 20.3672 78.0645 18.0117 79.4355 16.2656C80.8066 14.5078 82.623 13.6289 84.8848 13.6289C87.2051 13.6289 89.0156 14.4492 90.3164 16.0898L90.4746 13.9805H93.4453V32.543C93.4453 35.0039 92.7129 36.9434 91.248 38.3613C89.7949 39.7793 87.8379 40.4883 85.377 40.4883C84.0059 40.4883 82.6641 40.1953 81.3516 39.6094C80.0391 39.0234 79.0371 38.2207 78.3457 37.2012L80.0332 35.25C81.4277 36.9727 83.1328 37.834 85.1484 37.834C86.7305 37.834 87.9609 37.3887 88.8398 36.498C89.7305 35.6074 90.1758 34.3535 90.1758 32.7363V31.1016C88.875 32.6016 87.0996 33.3516 84.8496 33.3516C82.623 33.3516 80.8184 32.4551 79.4355 30.6621C78.0645 28.8691 77.3789 26.4258 77.3789 23.332ZM80.6484 23.7012C80.6484 25.8457 81.0879 27.5332 81.9668 28.7637C82.8457 29.9824 84.0762 30.5918 85.6582 30.5918C87.709 30.5918 89.2148 29.6602 90.1758 27.7969V19.1133C89.1797 17.2969 87.6855 16.3887 85.6934 16.3887C84.1113 16.3887 82.875 17.0039 81.9844 18.2344C81.0938 19.4648 80.6484 21.2871 80.6484 23.7012ZM106.26 33.3516C103.682 33.3516 101.584 32.5078 99.9668 30.8203C98.3496 29.1211 97.541 26.8535 97.541 24.0176V23.4199C97.541 21.5332 97.8984 19.8516 98.6133 18.375C99.3398 16.8867 100.348 15.7266 101.637 14.8945C102.938 14.0508 104.344 13.6289 105.855 13.6289C108.328 13.6289 110.25 14.4434 111.621 16.0723C112.992 17.7012 113.678 20.0332 113.678 23.0684V24.4219H100.793C100.84 26.2969 101.385 27.8145 102.428 28.9746C103.482 30.123 104.818 30.6973 106.436 30.6973C107.584 30.6973 108.557 30.4629 109.354 29.9941C110.15 29.5254 110.848 28.9043 111.445 28.1309L113.432 29.6777C111.838 32.127 109.447 33.3516 106.26 33.3516ZM105.855 16.3008C104.543 16.3008 103.441 16.7812 102.551 17.7422C101.66 18.6914 101.109 20.0273 100.898 21.75H110.426V21.5039C110.332 19.8516 109.887 18.5742 109.09 17.6719C108.293 16.7578 107.215 16.3008 105.855 16.3008ZM8.46094 75.6406V89H3.96094V54.875H16.5469C20.2812 54.875 23.2031 55.8281 25.3125 57.7344C27.4375 59.6406 28.5 62.1641 28.5 65.3047C28.5 68.6172 27.4609 71.1719 25.3828 72.9688C23.3203 74.75 20.3594 75.6406 16.5 75.6406H8.46094ZM8.46094 71.9609H16.5469C18.9531 71.9609 20.7969 71.3984 22.0781 70.2734C23.3594 69.1328 24 67.4922 24 65.3516C24 63.3203 23.3594 61.6953 22.0781 60.4766C20.7969 59.2578 19.0391 58.625 16.8047 58.5781H8.46094V71.9609ZM48.9375 89C48.6875 88.5 48.4844 87.6094 48.3281 86.3281C46.3125 88.4219 43.9062 89.4688 41.1094 89.4688C38.6094 89.4688 36.5547 88.7656 34.9453 87.3594C33.3516 85.9375 32.5547 84.1406 32.5547 81.9688C32.5547 79.3281 33.5547 77.2812 35.5547 75.8281C37.5703 74.3594 40.3984 73.625 44.0391 73.625H48.2578V71.6328C48.2578 70.1172 47.8047 68.9141 46.8984 68.0234C45.9922 67.1172 44.6562 66.6641 42.8906 66.6641C41.3438 66.6641 40.0469 67.0547 39 67.8359C37.9531 68.6172 37.4297 69.5625 37.4297 70.6719H33.0703C33.0703 69.4062 33.5156 68.1875 34.4062 67.0156C35.3125 65.8281 36.5312 64.8906 38.0625 64.2031C39.6094 63.5156 41.3047 63.1719 43.1484 63.1719C46.0703 63.1719 48.3594 63.9062 50.0156 65.375C51.6719 66.8281 52.5312 68.8359 52.5938 71.3984V83.0703C52.5938 85.3984 52.8906 87.25 53.4844 88.625V89H48.9375ZM41.7422 85.6953C43.1016 85.6953 44.3906 85.3438 45.6094 84.6406C46.8281 83.9375 47.7109 83.0234 48.2578 81.8984V76.6953H44.8594C39.5469 76.6953 36.8906 78.25 36.8906 81.3594C36.8906 82.7188 37.3438 83.7812 38.25 84.5469C39.1562 85.3125 40.3203 85.6953 41.7422 85.6953ZM71.6484 67.5312C70.9922 67.4219 70.2812 67.3672 69.5156 67.3672C66.6719 67.3672 64.7422 68.5781 63.7266 71V89H59.3906V63.6406H63.6094L63.6797 66.5703C65.1016 64.3047 67.1172 63.1719 69.7266 63.1719C70.5703 63.1719 71.2109 63.2812 71.6484 63.5V67.5312ZM82.7344 77.2578L80.0156 80.0938V89H75.6797V53H80.0156V74.7734L82.3359 71.9844L90.2344 63.6406H95.5078L85.6406 74.2344L96.6562 89H91.5703L82.7344 77.2578ZM104.695 89H100.359V63.6406H104.695V89ZM100.008 56.9141C100.008 56.2109 100.219 55.6172 100.641 55.1328C101.078 54.6484 101.719 54.4062 102.562 54.4062C103.406 54.4062 104.047 54.6484 104.484 55.1328C104.922 55.6172 105.141 56.2109 105.141 56.9141C105.141 57.6172 104.922 58.2031 104.484 58.6719C104.047 59.1406 103.406 59.375 102.562 59.375C101.719 59.375 101.078 59.1406 100.641 58.6719C100.219 58.2031 100.008 57.6172 100.008 56.9141ZM115.758 63.6406L115.898 66.8281C117.836 64.3906 120.367 63.1719 123.492 63.1719C128.852 63.1719 131.555 66.1953 131.602 72.2422V89H127.266V72.2188C127.25 70.3906 126.828 69.0391 126 68.1641C125.188 67.2891 123.914 66.8516 122.18 66.8516C120.773 66.8516 119.539 67.2266 118.477 67.9766C117.414 68.7266 116.586 69.7109 115.992 70.9297V89H111.656V63.6406H115.758ZM137.109 76.1094C137.109 72.1562 138.023 69.0156 139.852 66.6875C141.68 64.3438 144.102 63.1719 147.117 63.1719C150.211 63.1719 152.625 64.2656 154.359 66.4531L154.57 63.6406H158.531V88.3906C158.531 91.6719 157.555 94.2578 155.602 96.1484C153.664 98.0391 151.055 98.9844 147.773 98.9844C145.945 98.9844 144.156 98.5938 142.406 97.8125C140.656 97.0312 139.32 95.9609 138.398 94.6016L140.648 92C142.508 94.2969 144.781 95.4453 147.469 95.4453C149.578 95.4453 151.219 94.8516 152.391 93.6641C153.578 92.4766 154.172 90.8047 154.172 88.6484V86.4688C152.438 88.4688 150.07 89.4688 147.07 89.4688C144.102 89.4688 141.695 88.2734 139.852 85.8828C138.023 83.4922 137.109 80.2344 137.109 76.1094ZM141.469 76.6016C141.469 79.4609 142.055 81.7109 143.227 83.3516C144.398 84.9766 146.039 85.7891 148.148 85.7891C150.883 85.7891 152.891 84.5469 154.172 82.0625V70.4844C152.844 68.0625 150.852 66.8516 148.195 66.8516C146.086 66.8516 144.438 67.6719 143.25 69.3125C142.062 70.9531 141.469 73.3828 141.469 76.6016Z" fill="#FF5C00"/>
<path d="M144.768 9.37972C136.436 9.21286 129.547 15.8317 129.38 24.1634C129.213 32.495 135.832 39.3844 144.163 39.5513C152.495 39.7182 159.384 33.0993 159.551 24.7676C159.718 16.436 153.099 9.54659 144.768 9.37972Z" stroke="#FF5C00" stroke-width="2" stroke-linecap="round" stroke-linejoin="round"/>
<path d="M144.345 30.4998L150.5 24.5864L144.586 18.4312" stroke="#FF5C00" stroke-width="2" stroke-linecap="round" stroke-linejoin="round"/>
<path d="M138.431 24.3447L150.5 24.5864" stroke="#FF5C00" stroke-width="2" stroke-linecap="round" stroke-linejoin="round"/>
</svg>
